# xmcd CD database file
#
# Track frame offsets:
#	150
#	23554
#	48830
#	70736
#	91137
#	113787
#	139680
#	158772
#	181669
#	205447
#	229599
#	248548
#	265839
#	286989
#	317465
#
# Disc length: 4673 seconds
#
# Revision: 0
# Processed by: cddbd v1.5.2PL0 Copyright (c) Steve Scherf et al.
# Submitted via: CDex 1.70beta2
#
DISCID=b9123f0f
DTITLE=Various Artist - Quiet Storm
DYEAR=1900
DGENRE=Jazz
TTITLE0=Look alike - Bob James
TTITLE1=In the eye of the storm - Michael Franks
TTITLE2=In the name of love - Grover Washington Jr
TTITLE3=In all my wildest dreams - Joe Sample
TTITLE4=All I wanna do - Gerald Albright
TTITLE5=Never can say goodbye - Walter Beasley
TTITLE6=Rain - Norman Brown
TTITLE7=Slow Slide - Fourplay
TTITLE8=Alone with you - Doc Powell
TTITLE9=From dusk to dawn - George Duke
TTITLE10=Willow weep for me - David Sanborn
TTITLE11=My buddy - Dr John
TTITLE12=Don't let me lonely tonight - Chuck Loeb
TTITLE13=Drown in my own tears - Ronnie Earl and the Broadcasters
TTITLE14=Leavin' tomorrow - Steve Gadd
EXTD=
EXTT0=
EXTT1=
EXTT2=
EXTT3=
EXTT4=
EXTT5=
EXTT6=
EXTT7=
EXTT8=
EXTT9=
EXTT10=
EXTT11=
EXTT12=
EXTT13=
EXTT14=
PLAYORDER=
